<svg xmlns="http://www.w3.org/2000/svg" width="980" height="1123" viewBox="0 0 980 1123" role="img" aria-label="数据集发布时序图">

<defs>
  <marker id="arrow" markerWidth="10" markerHeight="10" refX="9" refY="3"
          orient="auto" markerUnits="strokeWidth">
    <path d="M0,0 L0,6 L9,3 z" fill="#27374d"/>
  </marker>
  <marker id="arrowMuted" markerWidth="10" markerHeight="10" refX="9" refY="3"
          orient="auto" markerUnits="strokeWidth">
    <path d="M0,0 L0,6 L9,3 z" fill="#64748b"/>
  </marker>
</defs>
<style>
  .bg { fill: #f8fafc; }
  .title { font: 700 24px -apple-system, BlinkMacSystemFont, 'PingFang SC', 'Microsoft YaHei', Arial, sans-serif; fill: #102033; }
  .subtitle { font: 500 13px -apple-system, BlinkMacSystemFont, 'PingFang SC', 'Microsoft YaHei', Arial, sans-serif; fill: #475569; }
  .node { fill: #ffffff; stroke: #334155; stroke-width: 1.4; }
  .nodeAccent { fill: #eef6ff; stroke: #2563eb; stroke-width: 1.4; }
  .nodeWarn { fill: #fff7ed; stroke: #ea580c; stroke-width: 1.4; }
  .nodeStop { fill: #f0fdf4; stroke: #16a34a; stroke-width: 1.4; }
  .nodeText { font: 600 14px -apple-system, BlinkMacSystemFont, 'PingFang SC', 'Microsoft YaHei', Arial, sans-serif; fill: #0f172a; }
  .smallText { font: 500 12px -apple-system, BlinkMacSystemFont, 'PingFang SC', 'Microsoft YaHei', Arial, sans-serif; fill: #334155; }
  .edge { stroke: #27374d; stroke-width: 1.5; fill: none; marker-end: url(#arrow); }
  .edgeMuted { stroke: #64748b; stroke-width: 1.3; fill: none; marker-end: url(#arrowMuted); }
  .lifeline { stroke: #94a3b8; stroke-width: 1; stroke-dasharray: 5 5; }
  .message { stroke: #27374d; stroke-width: 1.4; marker-end: url(#arrow); }
  .returnMessage { stroke: #64748b; stroke-width: 1.3; stroke-dasharray: 5 4; marker-end: url(#arrowMuted); }
  .loop { fill: #f1f5f9; stroke: #94a3b8; stroke-width: 1; stroke-dasharray: 6 4; }
</style>

<rect class="bg" x="0" y="0" width="980" height="1123"/>
<text class="title" x="490.0" y="36" text-anchor="middle">
<tspan x="490.0" dy="0">数据集发布时序图</tspan>
</text>
<rect class="nodeAccent" x="19.0" y="78" width="142" height="44" rx="8"/>
<text class="nodeText" x="90.0" y="105" text-anchor="middle">
<tspan x="90.0" dy="0">Agent</tspan>
</text>
<line class="lifeline" x1="90.0" y1="122" x2="90.0" y2="1073"/>
<rect class="nodeAccent" x="285.6666666666667" y="78" width="142" height="44" rx="8"/>
<text class="nodeText" x="356.6666666666667" y="105" text-anchor="middle">
<tspan x="356.6666666666667" dy="0">pangu-agent</tspan>
</text>
<line class="lifeline" x1="356.6666666666667" y1="122" x2="356.6666666666667" y2="1073"/>
<rect class="nodeAccent" x="552.3333333333334" y="78" width="142" height="44" rx="8"/>
<text class="nodeText" x="623.3333333333334" y="105" text-anchor="middle">
<tspan x="623.3333333333334" dy="0">Run State</tspan>
</text>
<line class="lifeline" x1="623.3333333333334" y1="122" x2="623.3333333333334" y2="1073"/>
<rect class="nodeAccent" x="819.0" y="78" width="142" height="44" rx="8"/>
<text class="nodeText" x="890.0" y="105" text-anchor="middle">
<tspan x="890.0" dy="0">Pangu API</tspan>
</text>
<line class="lifeline" x1="890.0" y1="122" x2="890.0" y2="1073"/>
<rect class="loop" x="48" y="707" width="884" height="171" rx="8"/>
<text class="smallText" x="66" y="727" text-anchor="start">
<tspan x="66" dy="0">loop until ready or timeout</tspan>
</text>
<line class="message" x1="90.0" y1="158" x2="356.6666666666667" y2="158"/>
<rect x="68.33333333333334" y="125" width="310" height="27" rx="5" fill="#f8fafc" opacity="0.94"/>
<text class="smallText" x="223.33333333333334" y="142" text-anchor="middle">
<tspan x="223.33333333333334" dy="0">dataset publish-prepare --scenario</tspan>
<tspan x="223.33333333333334" dy="14">--goal</tspan>
</text>
<line class="message" x1="356.6666666666667" y1="216" x2="890.0" y2="216"/>
<rect x="468.33333333333337" y="183" width="310" height="27" rx="5" fill="#f8fafc" opacity="0.94"/>
<text class="smallText" x="623.3333333333334" y="200" text-anchor="middle">
<tspan x="623.3333333333334" dy="0">_query_datasets(catalog=ORIGINAL,</tspan>
<tspan x="623.3333333333334" dy="14">status=ONLINE)</tspan>
</text>
<line class="message" x1="356.6666666666667" y1="274" x2="623.3333333333334" y2="274"/>
<rect x="335.0" y="241" width="310" height="27" rx="5" fill="#f8fafc" opacity="0.94"/>
<text class="smallText" x="490.0" y="258" text-anchor="middle">
<tspan x="490.0" dy="0">save sources with index</tspan>
</text>
<line class="returnMessage" x1="356.6666666666667" y1="332" x2="90.0" y2="332"/>
<rect x="68.33333333333334" y="299" width="310" height="27" rx="5" fill="#f8fafc" opacity="0.94"/>
<text class="smallText" x="223.33333333333334" y="316" text-anchor="middle">
<tspan x="223.33333333333334" dy="0">sources + next_action</tspan>
</text>
<line class="message" x1="90.0" y1="390" x2="356.6666666666667" y2="390"/>
<rect x="68.33333333333334" y="357" width="310" height="27" rx="5" fill="#f8fafc" opacity="0.94"/>
<text class="smallText" x="223.33333333333334" y="374" text-anchor="middle">
<tspan x="223.33333333333334" dy="0">dataset publish-validate --run-id</tspan>
<tspan x="223.33333333333334" dy="14">--source --publish-name</tspan>
</text>
<line class="message" x1="356.6666666666667" y1="448" x2="623.3333333333334" y2="448"/>
<rect x="335.0" y="415" width="310" height="27" rx="5" fill="#f8fafc" opacity="0.94"/>
<text class="smallText" x="490.0" y="432" text-anchor="middle">
<tspan x="490.0" dy="0">save request_body,</tspan>
<tspan x="490.0" dy="14">validate_success=true</tspan>
</text>
<line class="returnMessage" x1="356.6666666666667" y1="506" x2="90.0" y2="506"/>
<rect x="68.33333333333334" y="473" width="310" height="27" rx="5" fill="#f8fafc" opacity="0.94"/>
<text class="smallText" x="223.33333333333334" y="490" text-anchor="middle">
<tspan x="223.33333333333334" dy="0">request_body + next_action</tspan>
</text>
<line class="message" x1="90.0" y1="564" x2="356.6666666666667" y2="564"/>
<rect x="68.33333333333334" y="531" width="310" height="27" rx="5" fill="#f8fafc" opacity="0.94"/>
<text class="smallText" x="223.33333333333334" y="548" text-anchor="middle">
<tspan x="223.33333333333334" dy="0">dataset publish-submit --run-id --wait</tspan>
</text>
<line class="message" x1="356.6666666666667" y1="622" x2="890.0" y2="622"/>
<rect x="468.33333333333337" y="589" width="310" height="27" rx="5" fill="#f8fafc" opacity="0.94"/>
<text class="smallText" x="623.3333333333334" y="606" text-anchor="middle">
<tspan x="623.3333333333334" dy="0">POST PUBLISH_JOBS_PATH</tspan>
</text>
<line class="message" x1="356.6666666666667" y1="680" x2="890.0" y2="680"/>
<rect x="468.33333333333337" y="647" width="310" height="27" rx="5" fill="#f8fafc" opacity="0.94"/>
<text class="smallText" x="623.3333333333334" y="664" text-anchor="middle">
<tspan x="623.3333333333334" dy="0">_wait_for_published_dataset()</tspan>
</text>
<line class="message" x1="356.6666666666667" y1="738" x2="890.0" y2="738"/>
<rect x="468.33333333333337" y="705" width="310" height="27" rx="5" fill="#f8fafc" opacity="0.94"/>
<text class="smallText" x="623.3333333333334" y="722" text-anchor="middle">
<tspan x="623.3333333333334" dy="0">_find_ready_training_dataset()</tspan>
</text>
<line class="message" x1="356.6666666666667" y1="796" x2="890.0" y2="796"/>
<rect x="468.33333333333337" y="763" width="310" height="27" rx="5" fill="#f8fafc" opacity="0.94"/>
<text class="smallText" x="623.3333333333334" y="780" text-anchor="middle">
<tspan x="623.3333333333334" dy="0">_get_dataset_detail(name,</tspan>
<tspan x="623.3333333333334" dy="14">catalog=PUBLISH)</tspan>
</text>
<path class="message" d="M356.6666666666667,854 L426.6666666666667,854 L426.6666666666667,882 L360.6666666666667,882"/>
<text class="smallText" x="434.6666666666667" y="847" text-anchor="start">
<tspan x="434.6666666666667" dy="0">validate_training_dataset_ready()</tspan>
</text>
<line class="message" x1="356.6666666666667" y1="912" x2="623.3333333333334" y2="912"/>
<rect x="335.0" y="879" width="310" height="27" rx="5" fill="#f8fafc" opacity="0.94"/>
<text class="smallText" x="490.0" y="896" text-anchor="middle">
<tspan x="490.0" dy="0">save published_dataset</tspan>
</text>
<line class="returnMessage" x1="356.6666666666667" y1="970" x2="90.0" y2="970"/>
<rect x="68.33333333333334" y="937" width="310" height="27" rx="5" fill="#f8fafc" opacity="0.94"/>
<text class="smallText" x="223.33333333333334" y="954" text-anchor="middle">
<tspan x="223.33333333333334" dy="0">published_dataset +</tspan>
<tspan x="223.33333333333334" dy="14">terminal/next_action</tspan>
</text>
</svg>